<?xml version="1.0" encoding="UTF-8" standalone="no"?>
<!DOCTYPE svg PUBLIC "-//W3C//DTD SVG 1.1//EN"
 "http://www.w3.org/Graphics/SVG/1.1/DTD/svg11.dtd">
<!-- Generated by graphviz version 2.40.1 (20161225.0304)
 -->
<!-- Title: dependencies Pages: 1 -->
<svg width="3178pt" height="284pt"
 viewBox="0.00 0.00 3178.00 284.00" xmlns="http://www.w3.org/2000/svg" xmlns:xlink="http://www.w3.org/1999/xlink">
<g id="graph0" class="graph" transform="scale(1 1) rotate(0) translate(4 280)">
<title>dependencies</title>
<polygon fill="#ffffff" stroke="transparent" points="-4,4 -4,-280 3174,-280 3174,4 -4,4"/>
<text text-anchor="start" x="1564.0091" y="-42.4" font-family="sans-serif" font-weight="bold" font-size="14.00" fill="#000000">Legend</text>
<polygon fill="#ffffb3" stroke="transparent" points="1351,-10 1351,-30 1371,-30 1371,-10 1351,-10"/>
<text text-anchor="start" x="1374.629" y="-15.4" font-family="sans-serif" font-size="14.00" fill="#000000"> &#160;Declarations</text>
<polygon fill="#8dd3c7" stroke="transparent" points="1464,-10 1464,-30 1484,-30 1484,-10 1464,-10"/>
<text text-anchor="start" x="1487.7251" y="-15.4" font-family="sans-serif" font-size="14.00" fill="#000000"> &#160;Module</text>
<polygon fill="#80b1d3" stroke="transparent" points="1550,-10 1550,-30 1570,-30 1570,-10 1550,-10"/>
<text text-anchor="start" x="1573.7812" y="-15.4" font-family="sans-serif" font-size="14.00" fill="#000000"> &#160;Bootstrap</text>
<polygon fill="#fdb462" stroke="transparent" points="1647,-10 1647,-30 1667,-30 1667,-10 1647,-10"/>
<text text-anchor="start" x="1670.6732" y="-15.4" font-family="sans-serif" font-size="14.00" fill="#000000"> &#160;Providers</text>
<polygon fill="#fb8072" stroke="transparent" points="1743,-10 1743,-30 1763,-30 1763,-10 1743,-10"/>
<text text-anchor="start" x="1766.7258" y="-15.4" font-family="sans-serif" font-size="14.00" fill="#000000"> &#160;Exports</text>
<g id="clust1" class="cluster">
<title>cluster_AppModule</title>
<polygon fill="none" stroke="#000000" stroke-dasharray="1,5" points="8,-70 8,-268 3162,-268 3162,-70 8,-70"/>
</g>
<g id="clust2" class="cluster">
<title>cluster_AppModule_declarations</title>
<polygon fill="none" stroke="#000000" points="1419,-78 1419,-130 3154,-130 3154,-78 1419,-78"/>
</g>
<g id="clust13" class="cluster">
<title>cluster_AppModule_imports</title>
<polygon fill="none" stroke="#000000" points="924,-78 924,-130 1411,-130 1411,-78 924,-78"/>
</g>
<g id="clust15" class="cluster">
<title>cluster_AppModule_bootstrap</title>
<polygon fill="none" stroke="#000000" points="1412,-208 1412,-260 1536,-260 1536,-208 1412,-208"/>
</g>
<g id="clust16" class="cluster">
<title>cluster_AppModule_providers</title>
<polygon fill="none" stroke="#000000" points="16,-78 16,-130 916,-130 916,-78 16,-78"/>
</g>
<!-- AppComponent -->
<g id="node1" class="node">
<title>AppComponent</title>
<polygon fill="#ffffb3" stroke="#000000" points="3145.9399,-122 3040.0601,-122 3040.0601,-86 3145.9399,-86 3145.9399,-122"/>
<text text-anchor="middle" x="3093" y="-99.8" font-family="Times,serif" font-size="14.00" fill="#000000">AppComponent</text>
</g>
<!-- AppModule -->
<g id="node11" class="node">
<title>AppModule</title>
<polygon fill="#8dd3c7" stroke="#000000" points="1515.6571,-187 1512.6571,-191 1491.6571,-191 1488.6571,-187 1432.3429,-187 1432.3429,-151 1515.6571,-151 1515.6571,-187"/>
<text text-anchor="middle" x="1474" y="-164.8" font-family="Times,serif" font-size="14.00" fill="#000000">AppModule</text>
</g>
<!-- AppComponent&#45;&gt;AppModule -->
<g id="edge1" class="edge">
<title>AppComponent&#45;&gt;AppModule</title>
<path fill="none" stroke="#000000" d="M3093,-122.1532C3093,-145.7566 3093,-184 3093,-184 3093,-184 1526.0588,-184 1526.0588,-184"/>
<polygon fill="#000000" stroke="#000000" points="1526.0589,-180.5001 1516.0588,-184 1526.0588,-187.5001 1526.0589,-180.5001"/>
</g>
<!-- TextboxComponent -->
<g id="node2" class="node">
<title>TextboxComponent</title>
<polygon fill="#ffffb3" stroke="#000000" points="3021.9902,-122 2894.0098,-122 2894.0098,-86 3021.9902,-86 3021.9902,-122"/>
<text text-anchor="middle" x="2958" y="-99.8" font-family="Times,serif" font-size="14.00" fill="#000000">TextboxComponent</text>
</g>
<!-- TextboxComponent&#45;&gt;AppModule -->
<g id="edge2" class="edge">
<title>TextboxComponent&#45;&gt;AppModule</title>
<path fill="none" stroke="#000000" d="M2958,-122.0109C2958,-144.4852 2958,-180 2958,-180 2958,-180 1526.0228,-180 1526.0228,-180"/>
<polygon fill="#000000" stroke="#000000" points="1526.0228,-176.5001 1516.0228,-180 1526.0227,-183.5001 1526.0228,-176.5001"/>
</g>
<!-- DropdownComponent -->
<g id="node3" class="node">
<title>DropdownComponent</title>
<polygon fill="#ffffb3" stroke="#000000" points="2875.7064,-122 2734.2936,-122 2734.2936,-86 2875.7064,-86 2875.7064,-122"/>
<text text-anchor="middle" x="2805" y="-99.8" font-family="Times,serif" font-size="14.00" fill="#000000">DropdownComponent</text>
</g>
<!-- DropdownComponent&#45;&gt;AppModule -->
<g id="edge3" class="edge">
<title>DropdownComponent&#45;&gt;AppModule</title>
<path fill="none" stroke="#000000" d="M2805,-122.0449C2805,-143.6623 2805,-177 2805,-177 2805,-177 1525.6624,-177 1525.6624,-177"/>
<polygon fill="#000000" stroke="#000000" points="1525.6624,-173.5001 1515.6624,-177 1525.6623,-180.5001 1525.6624,-173.5001"/>
</g>
<!-- LoaderOrganismComponent -->
<g id="node4" class="node">
<title>LoaderOrganismComponent</title>
<polygon fill="#ffffb3" stroke="#000000" points="2716.1825,-122 2539.8175,-122 2539.8175,-86 2716.1825,-86 2716.1825,-122"/>
<text text-anchor="middle" x="2628" y="-99.8" font-family="Times,serif" font-size="14.00" fill="#000000">LoaderOrganismComponent</text>
</g>
<!-- LoaderOrganismComponent&#45;&gt;AppModule -->
<g id="edge4" class="edge">
<title>LoaderOrganismComponent&#45;&gt;AppModule</title>
<path fill="none" stroke="#000000" d="M2628,-122.1289C2628,-142.5724 2628,-173 2628,-173 2628,-173 1525.7532,-173 1525.7532,-173"/>
<polygon fill="#000000" stroke="#000000" points="1525.7533,-169.5001 1515.7532,-173 1525.7532,-176.5001 1525.7533,-169.5001"/>
</g>
<!-- HeaderOrganismComponent -->
<g id="node5" class="node">
<title>HeaderOrganismComponent</title>
<polygon fill="#ffffb3" stroke="#000000" points="2521.451,-122 2344.549,-122 2344.549,-86 2521.451,-86 2521.451,-122"/>
<text text-anchor="middle" x="2433" y="-99.8" font-family="Times,serif" font-size="14.00" fill="#000000">HeaderOrganismComponent</text>
</g>
<!-- HeaderOrganismComponent&#45;&gt;AppModule -->
<g id="edge5" class="edge">
<title>HeaderOrganismComponent&#45;&gt;AppModule</title>
<path fill="none" stroke="#000000" d="M2433,-122.1061C2433,-141.3391 2433,-169 2433,-169 2433,-169 1525.8237,-169 1525.8237,-169"/>
<polygon fill="#000000" stroke="#000000" points="1525.8237,-165.5001 1515.8237,-169 1525.8236,-172.5001 1525.8237,-165.5001"/>
</g>
<!-- FormOrganismComponent -->
<g id="node6" class="node">
<title>FormOrganismComponent</title>
<polygon fill="#ffffb3" stroke="#000000" points="2326.3738,-122 2159.6262,-122 2159.6262,-86 2326.3738,-86 2326.3738,-122"/>
<text text-anchor="middle" x="2243" y="-99.8" font-family="Times,serif" font-size="14.00" fill="#000000">FormOrganismComponent</text>
</g>
<!-- FormOrganismComponent&#45;&gt;AppModule -->
<g id="edge6" class="edge">
<title>FormOrganismComponent&#45;&gt;AppModule</title>
<path fill="none" stroke="#000000" d="M2243,-122.2667C2243,-140.5552 2243,-166 2243,-166 2243,-166 1525.8909,-166 1525.8909,-166"/>
<polygon fill="#000000" stroke="#000000" points="1525.8909,-162.5001 1515.8909,-166 1525.8909,-169.5001 1525.8909,-162.5001"/>
</g>
<!-- VersionOrganismComponent -->
<g id="node7" class="node">
<title>VersionOrganismComponent</title>
<polygon fill="#ffffb3" stroke="#000000" points="2141.3571,-122 1960.6429,-122 1960.6429,-86 2141.3571,-86 2141.3571,-122"/>
<text text-anchor="middle" x="2051" y="-99.8" font-family="Times,serif" font-size="14.00" fill="#000000">VersionOrganismComponent</text>
</g>
<!-- VersionOrganismComponent&#45;&gt;AppModule -->
<g id="edge7" class="edge">
<title>VersionOrganismComponent&#45;&gt;AppModule</title>
<path fill="none" stroke="#000000" d="M2051,-122.0336C2051,-139.0597 2051,-162 2051,-162 2051,-162 1525.9612,-162 1525.9612,-162"/>
<polygon fill="#000000" stroke="#000000" points="1525.9612,-158.5001 1515.9612,-162 1525.9612,-165.5001 1525.9612,-158.5001"/>
</g>
<!-- CredentialOrganismComponent -->
<g id="node8" class="node">
<title>CredentialOrganismComponent</title>
<polygon fill="#ffffb3" stroke="#000000" points="1942.3529,-122 1747.6471,-122 1747.6471,-86 1942.3529,-86 1942.3529,-122"/>
<text text-anchor="middle" x="1845" y="-99.8" font-family="Times,serif" font-size="14.00" fill="#000000">CredentialOrganismComponent</text>
</g>
<!-- CredentialOrganismComponent&#45;&gt;AppModule -->
<g id="edge8" class="edge">
<title>CredentialOrganismComponent&#45;&gt;AppModule</title>
<path fill="none" stroke="#000000" d="M1845,-122.0091C1845,-138.0494 1845,-159 1845,-159 1845,-159 1525.8372,-159 1525.8372,-159"/>
<polygon fill="#000000" stroke="#000000" points="1525.8373,-155.5001 1515.8372,-159 1525.8372,-162.5001 1525.8373,-155.5001"/>
</g>
<!-- SummaryOrganismComponent -->
<g id="node9" class="node">
<title>SummaryOrganismComponent</title>
<polygon fill="#ffffb3" stroke="#000000" points="1729.479,-122 1538.521,-122 1538.521,-86 1729.479,-86 1729.479,-122"/>
<text text-anchor="middle" x="1634" y="-99.8" font-family="Times,serif" font-size="14.00" fill="#000000">SummaryOrganismComponent</text>
</g>
<!-- SummaryOrganismComponent&#45;&gt;AppModule -->
<g id="edge9" class="edge">
<title>SummaryOrganismComponent&#45;&gt;AppModule</title>
<path fill="none" stroke="#000000" d="M1634,-122.1243C1634,-136.7832 1634,-155 1634,-155 1634,-155 1526.0381,-155 1526.0381,-155"/>
<polygon fill="#000000" stroke="#000000" points="1526.0382,-151.5001 1516.0381,-155 1526.0381,-158.5001 1526.0382,-151.5001"/>
</g>
<!-- SensitiveData -->
<g id="node10" class="node">
<title>SensitiveData</title>
<polygon fill="#ffffb3" stroke="#000000" points="1520.7549,-122 1427.2451,-122 1427.2451,-86 1520.7549,-86 1520.7549,-122"/>
<text text-anchor="middle" x="1474" y="-99.8" font-family="Times,serif" font-size="14.00" fill="#000000">SensitiveData</text>
</g>
<!-- SensitiveData&#45;&gt;AppModule -->
<g id="edge10" class="edge">
<title>SensitiveData&#45;&gt;AppModule</title>
<path fill="none" stroke="#000000" d="M1474,-122.1061C1474,-122.1061 1474,-140.991 1474,-140.991"/>
<polygon fill="#000000" stroke="#000000" points="1470.5001,-140.9909 1474,-150.991 1477.5001,-140.991 1470.5001,-140.9909"/>
</g>
<!-- AppComponent  -->
<g id="node16" class="node">
<title>AppComponent </title>
<polygon fill="#80b1d3" stroke="#000000" points="1528.439,-252 1419.561,-252 1419.561,-216 1528.439,-216 1528.439,-252"/>
<text text-anchor="middle" x="1474" y="-229.8" font-family="Times,serif" font-size="14.00" fill="#000000">AppComponent </text>
</g>
<!-- AppModule&#45;&gt;AppComponent  -->
<g id="edge15" class="edge">
<title>AppModule&#45;&gt;AppComponent </title>
<path fill="none" stroke="#000000" stroke-dasharray="1,5" d="M1474,-187.1061C1474,-187.1061 1474,-205.991 1474,-205.991"/>
<polygon fill="#000000" stroke="#000000" points="1470.5001,-205.9909 1474,-215.991 1477.5001,-205.991 1470.5001,-205.9909"/>
</g>
<!-- BrowserModule -->
<g id="node12" class="node">
<title>BrowserModule</title>
<polygon fill="#8dd3c7" stroke="#000000" points="1403.4734,-122 1400.4734,-126 1379.4734,-126 1376.4734,-122 1296.5266,-122 1296.5266,-86 1403.4734,-86 1403.4734,-122"/>
<text text-anchor="middle" x="1350" y="-99.8" font-family="Times,serif" font-size="14.00" fill="#000000">BrowserModule</text>
</g>
<!-- BrowserModule&#45;&gt;AppModule -->
<g id="edge11" class="edge">
<title>BrowserModule&#45;&gt;AppModule</title>
<path fill="none" stroke="#000000" d="M1350,-122.1243C1350,-136.7832 1350,-155 1350,-155 1350,-155 1422.0193,-155 1422.0193,-155"/>
<polygon fill="#000000" stroke="#000000" points="1422.0193,-158.5001 1432.0193,-155 1422.0192,-151.5001 1422.0193,-158.5001"/>
</g>
<!-- HttpModule -->
<g id="node13" class="node">
<title>HttpModule</title>
<polygon fill="#8dd3c7" stroke="#000000" points="1278.4387,-122 1275.4387,-126 1254.4387,-126 1251.4387,-122 1193.5613,-122 1193.5613,-86 1278.4387,-86 1278.4387,-122"/>
<text text-anchor="middle" x="1236" y="-99.8" font-family="Times,serif" font-size="14.00" fill="#000000">HttpModule</text>
</g>
<!-- HttpModule&#45;&gt;AppModule -->
<g id="edge12" class="edge">
<title>HttpModule&#45;&gt;AppModule</title>
<path fill="none" stroke="#000000" d="M1236,-122.0091C1236,-138.0494 1236,-159 1236,-159 1236,-159 1422.2712,-159 1422.2712,-159"/>
<polygon fill="#000000" stroke="#000000" points="1422.2713,-162.5001 1432.2712,-159 1422.2712,-155.5001 1422.2713,-162.5001"/>
</g>
<!-- RouterModule -->
<g id="node14" class="node">
<title>RouterModule</title>
<polygon fill="#8dd3c7" stroke="#000000" points="1175.6528,-122 1172.6528,-126 1151.6528,-126 1148.6528,-122 1078.3472,-122 1078.3472,-86 1175.6528,-86 1175.6528,-122"/>
<text text-anchor="middle" x="1127" y="-99.8" font-family="Times,serif" font-size="14.00" fill="#000000">RouterModule</text>
</g>
<!-- RouterModule&#45;&gt;AppModule -->
<g id="edge13" class="edge">
<title>RouterModule&#45;&gt;AppModule</title>
<path fill="none" stroke="#000000" d="M1127,-122.0336C1127,-139.0597 1127,-162 1127,-162 1127,-162 1422.1437,-162 1422.1437,-162"/>
<polygon fill="#000000" stroke="#000000" points="1422.1437,-165.5001 1432.1437,-162 1422.1437,-158.5001 1422.1437,-165.5001"/>
</g>
<!-- AppRoutingModule -->
<g id="node15" class="node">
<title>AppRoutingModule</title>
<polygon fill="#8dd3c7" stroke="#000000" points="1060.2744,-122 1057.2744,-126 1036.2744,-126 1033.2744,-122 931.7256,-122 931.7256,-86 1060.2744,-86 1060.2744,-122"/>
<text text-anchor="middle" x="996" y="-99.8" font-family="Times,serif" font-size="14.00" fill="#000000">AppRoutingModule</text>
</g>
<!-- AppRoutingModule&#45;&gt;AppModule -->
<g id="edge14" class="edge">
<title>AppRoutingModule&#45;&gt;AppModule</title>
<path fill="none" stroke="#000000" d="M996,-122.2667C996,-140.5552 996,-166 996,-166 996,-166 1421.9996,-166 1421.9996,-166"/>
<polygon fill="#000000" stroke="#000000" points="1421.9997,-169.5001 1431.9996,-166 1421.9996,-162.5001 1421.9997,-169.5001"/>
</g>
<!-- DynamicLoaderService -->
<g id="node17" class="node">
<title>DynamicLoaderService</title>
<ellipse fill="#fdb462" stroke="#000000" cx="805" cy="-104" rx="102.9686" ry="18"/>
<text text-anchor="middle" x="805" y="-99.8" font-family="Times,serif" font-size="14.00" fill="#000000">DynamicLoaderService</text>
</g>
<!-- DynamicLoaderService&#45;&gt;AppModule -->
<g id="edge16" class="edge">
<title>DynamicLoaderService&#45;&gt;AppModule</title>
<path fill="none" stroke="#000000" d="M805,-122.1061C805,-141.3391 805,-169 805,-169 805,-169 1422.1511,-169 1422.1511,-169"/>
<polygon fill="#000000" stroke="#000000" points="1422.1511,-172.5001 1432.1511,-169 1422.151,-165.5001 1422.1511,-172.5001"/>
</g>
<!-- InputService -->
<g id="node18" class="node">
<title>InputService</title>
<ellipse fill="#fdb462" stroke="#000000" cx="624" cy="-104" rx="60.2518" ry="18"/>
<text text-anchor="middle" x="624" y="-99.8" font-family="Times,serif" font-size="14.00" fill="#000000">InputService</text>
</g>
<!-- InputService&#45;&gt;AppModule -->
<g id="edge17" class="edge">
<title>InputService&#45;&gt;AppModule</title>
<path fill="none" stroke="#000000" d="M624,-122.1289C624,-142.5724 624,-173 624,-173 624,-173 1422.1383,-173 1422.1383,-173"/>
<polygon fill="#000000" stroke="#000000" points="1422.1383,-176.5001 1432.1383,-173 1422.1383,-169.5001 1422.1383,-176.5001"/>
</g>
<!-- UserValueService -->
<g id="node19" class="node">
<title>UserValueService</title>
<ellipse fill="#fdb462" stroke="#000000" cx="464" cy="-104" rx="81.0551" ry="18"/>
<text text-anchor="middle" x="464" y="-99.8" font-family="Times,serif" font-size="14.00" fill="#000000">UserValueService</text>
</g>
<!-- UserValueService&#45;&gt;AppModule -->
<g id="edge18" class="edge">
<title>UserValueService&#45;&gt;AppModule</title>
<path fill="none" stroke="#000000" d="M464,-122.0449C464,-143.6623 464,-177 464,-177 464,-177 1422.2062,-177 1422.2062,-177"/>
<polygon fill="#000000" stroke="#000000" points="1422.2062,-180.5001 1432.2062,-177 1422.2061,-173.5001 1422.2062,-180.5001"/>
</g>
<!-- ExpressionParserService -->
<g id="node20" class="node">
<title>ExpressionParserService</title>
<ellipse fill="#fdb462" stroke="#000000" cx="258" cy="-104" rx="107.0569" ry="18"/>
<text text-anchor="middle" x="258" y="-99.8" font-family="Times,serif" font-size="14.00" fill="#000000">ExpressionParserService</text>
</g>
<!-- ExpressionParserService&#45;&gt;AppModule -->
<g id="edge19" class="edge">
<title>ExpressionParserService&#45;&gt;AppModule</title>
<path fill="none" stroke="#000000" d="M258,-122.0109C258,-144.4852 258,-180 258,-180 258,-180 1422.1425,-180 1422.1425,-180"/>
<polygon fill="#000000" stroke="#000000" points="1422.1426,-183.5001 1432.1425,-180 1422.1425,-176.5001 1422.1426,-183.5001"/>
</g>
<!-- ApiService -->
<g id="node21" class="node">
<title>ApiService</title>
<ellipse fill="#fdb462" stroke="#000000" cx="78" cy="-104" rx="54.4508" ry="18"/>
<text text-anchor="middle" x="78" y="-99.8" font-family="Times,serif" font-size="14.00" fill="#000000">ApiService</text>
</g>
<!-- ApiService&#45;&gt;AppModule -->
<g id="edge20" class="edge">
<title>ApiService&#45;&gt;AppModule</title>
<path fill="none" stroke="#000000" d="M78,-122.1532C78,-145.7566 78,-184 78,-184 78,-184 1422.2205,-184 1422.2205,-184"/>
<polygon fill="#000000" stroke="#000000" points="1422.2205,-187.5001 1432.2205,-184 1422.2205,-180.5001 1422.2205,-187.5001"/>
</g>
</g>
</svg>
