<?xml version="1.0" encoding="UTF-8" standalone="no"?>
<!DOCTYPE svg PUBLIC "-//W3C//DTD SVG 1.1//EN"
 "http://www.w3.org/Graphics/SVG/1.1/DTD/svg11.dtd">
<!-- Generated by graphviz version 2.40.1 (20161225.0304)
 -->
<!-- Title: dependencies Pages: 1 -->
<svg width="3523pt" height="290pt"
 viewBox="0.00 0.00 3523.00 290.00" xmlns="http://www.w3.org/2000/svg" xmlns:xlink="http://www.w3.org/1999/xlink">
<g id="graph0" class="graph" transform="scale(1 1) rotate(0) translate(4 286)">
<title>dependencies</title>
<polygon fill="#ffffff" stroke="transparent" points="-4,4 -4,-286 3519,-286 3519,4 -4,4"/>
<text text-anchor="start" x="1736.5091" y="-42.4" font-family="sans-serif" font-weight="bold" font-size="14.00" fill="#000000">Legend</text>
<polygon fill="#ffffb3" stroke="transparent" points="1523.5,-10 1523.5,-30 1543.5,-30 1543.5,-10 1523.5,-10"/>
<text text-anchor="start" x="1547.129" y="-15.4" font-family="sans-serif" font-size="14.00" fill="#000000"> &#160;Declarations</text>
<polygon fill="#8dd3c7" stroke="transparent" points="1636.5,-10 1636.5,-30 1656.5,-30 1656.5,-10 1636.5,-10"/>
<text text-anchor="start" x="1660.2251" y="-15.4" font-family="sans-serif" font-size="14.00" fill="#000000"> &#160;Module</text>
<polygon fill="#80b1d3" stroke="transparent" points="1722.5,-10 1722.5,-30 1742.5,-30 1742.5,-10 1722.5,-10"/>
<text text-anchor="start" x="1746.2812" y="-15.4" font-family="sans-serif" font-size="14.00" fill="#000000"> &#160;Bootstrap</text>
<polygon fill="#fdb462" stroke="transparent" points="1819.5,-10 1819.5,-30 1839.5,-30 1839.5,-10 1819.5,-10"/>
<text text-anchor="start" x="1843.1732" y="-15.4" font-family="sans-serif" font-size="14.00" fill="#000000"> &#160;Providers</text>
<polygon fill="#fb8072" stroke="transparent" points="1915.5,-10 1915.5,-30 1935.5,-30 1935.5,-10 1915.5,-10"/>
<text text-anchor="start" x="1939.2258" y="-15.4" font-family="sans-serif" font-size="14.00" fill="#000000"> &#160;Exports</text>
<g id="clust1" class="cluster">
<title>cluster_AppModule</title>
<polygon fill="none" stroke="#000000" stroke-dasharray="1,5" points="8,-70 8,-274 3163,-274 3163,-70 8,-70"/>
</g>
<g id="clust2" class="cluster">
<title>cluster_AppModule_declarations</title>
<polygon fill="none" stroke="#000000" points="924,-78 924,-130 2659,-130 2659,-78 924,-78"/>
</g>
<g id="clust13" class="cluster">
<title>cluster_AppModule_imports</title>
<polygon fill="none" stroke="#000000" points="2667,-78 2667,-130 3155,-130 3155,-78 2667,-78"/>
</g>
<g id="clust15" class="cluster">
<title>cluster_AppModule_bootstrap</title>
<polygon fill="none" stroke="#000000" points="1686,-214 1686,-266 1810,-266 1810,-214 1686,-214"/>
</g>
<g id="clust16" class="cluster">
<title>cluster_AppModule_providers</title>
<polygon fill="none" stroke="#000000" points="16,-78 16,-130 916,-130 916,-78 16,-78"/>
</g>
<g id="clust17" class="cluster">
<title>cluster_AppRoutingModule</title>
<polygon fill="none" stroke="#000000" stroke-dasharray="1,5" points="3171,-138 3171,-206 3507,-206 3507,-138 3171,-138"/>
</g>
<g id="clust19" class="cluster">
<title>cluster_AppRoutingModule_imports</title>
<polygon fill="none" stroke="#000000" points="3305,-146 3305,-198 3499,-198 3499,-146 3305,-146"/>
</g>
<g id="clust20" class="cluster">
<title>cluster_AppRoutingModule_exports</title>
<polygon fill="none" stroke="#000000" points="3179,-146 3179,-198 3297,-198 3297,-146 3179,-146"/>
</g>
<!-- AppComponent -->
<g id="node1" class="node">
<title>AppComponent</title>
<polygon fill="#ffffb3" stroke="#000000" points="2650.9399,-122 2545.0601,-122 2545.0601,-86 2650.9399,-86 2650.9399,-122"/>
<text text-anchor="middle" x="2598" y="-99.8" font-family="Times,serif" font-size="14.00" fill="#000000">AppComponent</text>
</g>
<!-- AppModule -->
<g id="node11" class="node">
<title>AppModule</title>
<polygon fill="#8dd3c7" stroke="#000000" points="1789.6571,-190 1786.6571,-194 1765.6571,-194 1762.6571,-190 1706.3429,-190 1706.3429,-154 1789.6571,-154 1789.6571,-190"/>
<text text-anchor="middle" x="1748" y="-167.8" font-family="Times,serif" font-size="14.00" fill="#000000">AppModule</text>
</g>
<!-- AppComponent&#45;&gt;AppModule -->
<g id="edge1" class="edge">
<title>AppComponent&#45;&gt;AppModule</title>
<path fill="none" stroke="#000000" d="M2598,-122.2228C2598,-142.3652 2598,-172 2598,-172 2598,-172 1799.8617,-172 1799.8617,-172"/>
<polygon fill="#000000" stroke="#000000" points="1799.8617,-168.5001 1789.8617,-172 1799.8617,-175.5001 1799.8617,-168.5001"/>
</g>
<!-- TextboxComponent -->
<g id="node2" class="node">
<title>TextboxComponent</title>
<polygon fill="#ffffb3" stroke="#000000" points="2526.9902,-122 2399.0098,-122 2399.0098,-86 2526.9902,-86 2526.9902,-122"/>
<text text-anchor="middle" x="2463" y="-99.8" font-family="Times,serif" font-size="14.00" fill="#000000">TextboxComponent</text>
</g>
<!-- TextboxComponent&#45;&gt;AppModule -->
<g id="edge2" class="edge">
<title>TextboxComponent&#45;&gt;AppModule</title>
<path fill="none" stroke="#000000" d="M2463,-122.1061C2463,-141.3391 2463,-169 2463,-169 2463,-169 1799.7942,-169 1799.7942,-169"/>
<polygon fill="#000000" stroke="#000000" points="1799.7942,-165.5001 1789.7942,-169 1799.7941,-172.5001 1799.7942,-165.5001"/>
</g>
<!-- DropdownComponent -->
<g id="node3" class="node">
<title>DropdownComponent</title>
<polygon fill="#ffffb3" stroke="#000000" points="2380.7064,-122 2239.2936,-122 2239.2936,-86 2380.7064,-86 2380.7064,-122"/>
<text text-anchor="middle" x="2310" y="-99.8" font-family="Times,serif" font-size="14.00" fill="#000000">DropdownComponent</text>
</g>
<!-- DropdownComponent&#45;&gt;AppModule -->
<g id="edge3" class="edge">
<title>DropdownComponent&#45;&gt;AppModule</title>
<path fill="none" stroke="#000000" d="M2310,-122.302C2310,-140.2699 2310,-165 2310,-165 2310,-165 1799.7822,-165 1799.7822,-165"/>
<polygon fill="#000000" stroke="#000000" points="1799.7822,-161.5001 1789.7822,-165 1799.7822,-168.5001 1799.7822,-161.5001"/>
</g>
<!-- LoaderOrganismComponent -->
<g id="node4" class="node">
<title>LoaderOrganismComponent</title>
<polygon fill="#ffffb3" stroke="#000000" points="2221.1825,-122 2044.8175,-122 2044.8175,-86 2221.1825,-86 2221.1825,-122"/>
<text text-anchor="middle" x="2133" y="-99.8" font-family="Times,serif" font-size="14.00" fill="#000000">LoaderOrganismComponent</text>
</g>
<!-- LoaderOrganismComponent&#45;&gt;AppModule -->
<g id="edge4" class="edge">
<title>LoaderOrganismComponent&#45;&gt;AppModule</title>
<path fill="none" stroke="#000000" d="M2133,-122.0336C2133,-139.0597 2133,-162 2133,-162 2133,-162 1799.9346,-162 1799.9346,-162"/>
<polygon fill="#000000" stroke="#000000" points="1799.9347,-158.5001 1789.9346,-162 1799.9346,-165.5001 1799.9347,-158.5001"/>
</g>
<!-- HeaderOrganismComponent -->
<g id="node5" class="node">
<title>HeaderOrganismComponent</title>
<polygon fill="#ffffb3" stroke="#000000" points="2026.451,-122 1849.549,-122 1849.549,-86 2026.451,-86 2026.451,-122"/>
<text text-anchor="middle" x="1938" y="-99.8" font-family="Times,serif" font-size="14.00" fill="#000000">HeaderOrganismComponent</text>
</g>
<!-- HeaderOrganismComponent&#45;&gt;AppModule -->
<g id="edge5" class="edge">
<title>HeaderOrganismComponent&#45;&gt;AppModule</title>
<path fill="none" stroke="#000000" d="M1938,-122.2819C1938,-137.9478 1938,-158 1938,-158 1938,-158 1799.6963,-158 1799.6963,-158"/>
<polygon fill="#000000" stroke="#000000" points="1799.6963,-154.5001 1789.6963,-158 1799.6963,-161.5001 1799.6963,-154.5001"/>
</g>
<!-- FormOrganismComponent -->
<g id="node6" class="node">
<title>FormOrganismComponent</title>
<polygon fill="#ffffb3" stroke="#000000" points="1831.3738,-122 1664.6262,-122 1664.6262,-86 1831.3738,-86 1831.3738,-122"/>
<text text-anchor="middle" x="1748" y="-99.8" font-family="Times,serif" font-size="14.00" fill="#000000">FormOrganismComponent</text>
</g>
<!-- FormOrganismComponent&#45;&gt;AppModule -->
<g id="edge6" class="edge">
<title>FormOrganismComponent&#45;&gt;AppModule</title>
<path fill="none" stroke="#000000" d="M1748,-122.2228C1748,-122.2228 1748,-143.7269 1748,-143.7269"/>
<polygon fill="#000000" stroke="#000000" points="1744.5001,-143.7269 1748,-153.7269 1751.5001,-143.727 1744.5001,-143.7269"/>
</g>
<!-- VersionOrganismComponent -->
<g id="node7" class="node">
<title>VersionOrganismComponent</title>
<polygon fill="#ffffb3" stroke="#000000" points="1646.3571,-122 1465.6429,-122 1465.6429,-86 1646.3571,-86 1646.3571,-122"/>
<text text-anchor="middle" x="1556" y="-99.8" font-family="Times,serif" font-size="14.00" fill="#000000">VersionOrganismComponent</text>
</g>
<!-- VersionOrganismComponent&#45;&gt;AppModule -->
<g id="edge7" class="edge">
<title>VersionOrganismComponent&#45;&gt;AppModule</title>
<path fill="none" stroke="#000000" d="M1556,-122.2819C1556,-137.9478 1556,-158 1556,-158 1556,-158 1696.3389,-158 1696.3389,-158"/>
<polygon fill="#000000" stroke="#000000" points="1696.3389,-161.5001 1706.3389,-158 1696.3388,-154.5001 1696.3389,-161.5001"/>
</g>
<!-- CredentialOrganismComponent -->
<g id="node8" class="node">
<title>CredentialOrganismComponent</title>
<polygon fill="#ffffb3" stroke="#000000" points="1447.3529,-122 1252.6471,-122 1252.6471,-86 1447.3529,-86 1447.3529,-122"/>
<text text-anchor="middle" x="1350" y="-99.8" font-family="Times,serif" font-size="14.00" fill="#000000">CredentialOrganismComponent</text>
</g>
<!-- CredentialOrganismComponent&#45;&gt;AppModule -->
<g id="edge8" class="edge">
<title>CredentialOrganismComponent&#45;&gt;AppModule</title>
<path fill="none" stroke="#000000" d="M1350,-122.0336C1350,-139.0597 1350,-162 1350,-162 1350,-162 1696.1593,-162 1696.1593,-162"/>
<polygon fill="#000000" stroke="#000000" points="1696.1593,-165.5001 1706.1593,-162 1696.1592,-158.5001 1696.1593,-165.5001"/>
</g>
<!-- SummaryOrganismComponent -->
<g id="node9" class="node">
<title>SummaryOrganismComponent</title>
<polygon fill="#ffffb3" stroke="#000000" points="1234.479,-122 1043.521,-122 1043.521,-86 1234.479,-86 1234.479,-122"/>
<text text-anchor="middle" x="1139" y="-99.8" font-family="Times,serif" font-size="14.00" fill="#000000">SummaryOrganismComponent</text>
</g>
<!-- SummaryOrganismComponent&#45;&gt;AppModule -->
<g id="edge9" class="edge">
<title>SummaryOrganismComponent&#45;&gt;AppModule</title>
<path fill="none" stroke="#000000" d="M1139,-122.302C1139,-140.2699 1139,-165 1139,-165 1139,-165 1696.141,-165 1696.141,-165"/>
<polygon fill="#000000" stroke="#000000" points="1696.141,-168.5001 1706.141,-165 1696.1409,-161.5001 1696.141,-168.5001"/>
</g>
<!-- SensitiveData -->
<g id="node10" class="node">
<title>SensitiveData</title>
<polygon fill="#ffffb3" stroke="#000000" points="1025.7549,-122 932.2451,-122 932.2451,-86 1025.7549,-86 1025.7549,-122"/>
<text text-anchor="middle" x="979" y="-99.8" font-family="Times,serif" font-size="14.00" fill="#000000">SensitiveData</text>
</g>
<!-- SensitiveData&#45;&gt;AppModule -->
<g id="edge10" class="edge">
<title>SensitiveData&#45;&gt;AppModule</title>
<path fill="none" stroke="#000000" d="M979,-122.1061C979,-141.3391 979,-169 979,-169 979,-169 1696.1091,-169 1696.1091,-169"/>
<polygon fill="#000000" stroke="#000000" points="1696.1091,-172.5001 1706.1091,-169 1696.1091,-165.5001 1696.1091,-172.5001"/>
</g>
<!-- AppComponent  -->
<g id="node16" class="node">
<title>AppComponent </title>
<polygon fill="#80b1d3" stroke="#000000" points="1802.439,-258 1693.561,-258 1693.561,-222 1802.439,-222 1802.439,-258"/>
<text text-anchor="middle" x="1748" y="-235.8" font-family="Times,serif" font-size="14.00" fill="#000000">AppComponent </text>
</g>
<!-- AppModule&#45;&gt;AppComponent  -->
<g id="edge15" class="edge">
<title>AppModule&#45;&gt;AppComponent </title>
<path fill="none" stroke="#000000" stroke-dasharray="1,5" d="M1748,-190.2228C1748,-190.2228 1748,-211.7269 1748,-211.7269"/>
<polygon fill="#000000" stroke="#000000" points="1744.5001,-211.7269 1748,-221.7269 1751.5001,-211.727 1744.5001,-211.7269"/>
</g>
<!-- BrowserModule -->
<g id="node12" class="node">
<title>BrowserModule</title>
<polygon fill="#8dd3c7" stroke="#000000" points="3000.4734,-122 2997.4734,-126 2976.4734,-126 2973.4734,-122 2893.5266,-122 2893.5266,-86 3000.4734,-86 3000.4734,-122"/>
<text text-anchor="middle" x="2947" y="-99.8" font-family="Times,serif" font-size="14.00" fill="#000000">BrowserModule</text>
</g>
<!-- BrowserModule&#45;&gt;AppModule -->
<g id="edge11" class="edge">
<title>BrowserModule&#45;&gt;AppModule</title>
<path fill="none" stroke="#000000" d="M2947,-122.3228C2947,-145.6602 2947,-183 2947,-183 2947,-183 1799.97,-183 1799.97,-183"/>
<polygon fill="#000000" stroke="#000000" points="1799.97,-179.5001 1789.97,-183 1799.97,-186.5001 1799.97,-179.5001"/>
</g>
<!-- HttpModule -->
<g id="node13" class="node">
<title>HttpModule</title>
<polygon fill="#8dd3c7" stroke="#000000" points="2875.4387,-122 2872.4387,-126 2851.4387,-126 2848.4387,-122 2790.5613,-122 2790.5613,-86 2875.4387,-86 2875.4387,-122"/>
<text text-anchor="middle" x="2833" y="-99.8" font-family="Times,serif" font-size="14.00" fill="#000000">HttpModule</text>
</g>
<!-- HttpModule&#45;&gt;AppModule -->
<g id="edge12" class="edge">
<title>HttpModule&#45;&gt;AppModule</title>
<path fill="none" stroke="#000000" d="M2833,-122.0109C2833,-144.4852 2833,-180 2833,-180 2833,-180 1799.8685,-180 1799.8685,-180"/>
<polygon fill="#000000" stroke="#000000" points="1799.8685,-176.5001 1789.8685,-180 1799.8684,-183.5001 1799.8685,-176.5001"/>
</g>
<!-- RouterModule -->
<g id="node14" class="node">
<title>RouterModule</title>
<polygon fill="#8dd3c7" stroke="#000000" points="2772.6528,-122 2769.6528,-126 2748.6528,-126 2745.6528,-122 2675.3472,-122 2675.3472,-86 2772.6528,-86 2772.6528,-122"/>
<text text-anchor="middle" x="2724" y="-99.8" font-family="Times,serif" font-size="14.00" fill="#000000">RouterModule</text>
</g>
<!-- RouterModule&#45;&gt;AppModule -->
<g id="edge13" class="edge">
<title>RouterModule&#45;&gt;AppModule</title>
<path fill="none" stroke="#000000" d="M2724,-122.1686C2724,-143.498 2724,-176 2724,-176 2724,-176 1799.9375,-176 1799.9375,-176"/>
<polygon fill="#000000" stroke="#000000" points="1799.9375,-172.5001 1789.9375,-176 1799.9375,-179.5001 1799.9375,-172.5001"/>
</g>
<!-- AppRoutingModule -->
<g id="node15" class="node">
<title>AppRoutingModule</title>
<polygon fill="#8dd3c7" stroke="#000000" points="3147.2744,-122 3144.2744,-126 3123.2744,-126 3120.2744,-122 3018.7256,-122 3018.7256,-86 3147.2744,-86 3147.2744,-122"/>
<text text-anchor="middle" x="3083" y="-99.8" font-family="Times,serif" font-size="14.00" fill="#000000">AppRoutingModule</text>
</g>
<!-- AppRoutingModule&#45;&gt;AppModule -->
<g id="edge14" class="edge">
<title>AppRoutingModule&#45;&gt;AppModule</title>
<path fill="none" stroke="#000000" d="M3083,-122.0098C3083,-146.4207 3083,-187 3083,-187 3083,-187 1799.7876,-187 1799.7876,-187"/>
<polygon fill="#000000" stroke="#000000" points="1799.7876,-183.5001 1789.7876,-187 1799.7875,-190.5001 1799.7876,-183.5001"/>
</g>
<!-- RouterModule  -->
<g id="node23" class="node">
<title>RouterModule </title>
<polygon fill="#fb8072" stroke="#000000" points="3288.6523,-190 3187.3477,-190 3187.3477,-154 3288.6523,-154 3288.6523,-190"/>
<text text-anchor="middle" x="3238" y="-167.8" font-family="Times,serif" font-size="14.00" fill="#000000">RouterModule </text>
</g>
<!-- AppRoutingModule&#45;&gt;RouterModule  -->
<g id="edge22" class="edge">
<title>AppRoutingModule&#45;&gt;RouterModule </title>
<path fill="none" stroke="#000000" stroke-dasharray="5,2" d="M3147.3874,-110C3189.9734,-110 3238,-110 3238,-110 3238,-110 3238,-143.7333 3238,-143.7333"/>
<polygon fill="#000000" stroke="#000000" points="3234.5001,-143.7333 3238,-153.7333 3241.5001,-143.7333 3234.5001,-143.7333"/>
</g>
<!-- DynamicLoaderService -->
<g id="node17" class="node">
<title>DynamicLoaderService</title>
<ellipse fill="#fdb462" stroke="#000000" cx="805" cy="-104" rx="102.9686" ry="18"/>
<text text-anchor="middle" x="805" y="-99.8" font-family="Times,serif" font-size="14.00" fill="#000000">DynamicLoaderService</text>
</g>
<!-- DynamicLoaderService&#45;&gt;AppModule -->
<g id="edge16" class="edge">
<title>DynamicLoaderService&#45;&gt;AppModule</title>
<path fill="none" stroke="#000000" d="M805,-122.2228C805,-142.3652 805,-172 805,-172 805,-172 1696.2637,-172 1696.2637,-172"/>
<polygon fill="#000000" stroke="#000000" points="1696.2637,-175.5001 1706.2637,-172 1696.2637,-168.5001 1696.2637,-175.5001"/>
</g>
<!-- InputService -->
<g id="node18" class="node">
<title>InputService</title>
<ellipse fill="#fdb462" stroke="#000000" cx="624" cy="-104" rx="60.2518" ry="18"/>
<text text-anchor="middle" x="624" y="-99.8" font-family="Times,serif" font-size="14.00" fill="#000000">InputService</text>
</g>
<!-- InputService&#45;&gt;AppModule -->
<g id="edge17" class="edge">
<title>InputService&#45;&gt;AppModule</title>
<path fill="none" stroke="#000000" d="M624,-122.1686C624,-143.498 624,-176 624,-176 624,-176 1696.3269,-176 1696.3269,-176"/>
<polygon fill="#000000" stroke="#000000" points="1696.3269,-179.5001 1706.3269,-176 1696.3268,-172.5001 1696.3269,-179.5001"/>
</g>
<!-- UserValueService -->
<g id="node19" class="node">
<title>UserValueService</title>
<ellipse fill="#fdb462" stroke="#000000" cx="464" cy="-104" rx="81.0551" ry="18"/>
<text text-anchor="middle" x="464" y="-99.8" font-family="Times,serif" font-size="14.00" fill="#000000">UserValueService</text>
</g>
<!-- UserValueService&#45;&gt;AppModule -->
<g id="edge18" class="edge">
<title>UserValueService&#45;&gt;AppModule</title>
<path fill="none" stroke="#000000" d="M464,-122.0109C464,-144.4852 464,-180 464,-180 464,-180 1696.009,-180 1696.009,-180"/>
<polygon fill="#000000" stroke="#000000" points="1696.0091,-183.5001 1706.009,-180 1696.009,-176.5001 1696.0091,-183.5001"/>
</g>
<!-- ExpressionParserService -->
<g id="node20" class="node">
<title>ExpressionParserService</title>
<ellipse fill="#fdb462" stroke="#000000" cx="258" cy="-104" rx="107.0569" ry="18"/>
<text text-anchor="middle" x="258" y="-99.8" font-family="Times,serif" font-size="14.00" fill="#000000">ExpressionParserService</text>
</g>
<!-- ExpressionParserService&#45;&gt;AppModule -->
<g id="edge19" class="edge">
<title>ExpressionParserService&#45;&gt;AppModule</title>
<path fill="none" stroke="#000000" d="M258,-122.3228C258,-145.6602 258,-183 258,-183 258,-183 1696.2014,-183 1696.2014,-183"/>
<polygon fill="#000000" stroke="#000000" points="1696.2014,-186.5001 1706.2014,-183 1696.2014,-179.5001 1696.2014,-186.5001"/>
</g>
<!-- ApiService -->
<g id="node21" class="node">
<title>ApiService</title>
<ellipse fill="#fdb462" stroke="#000000" cx="78" cy="-104" rx="54.4508" ry="18"/>
<text text-anchor="middle" x="78" y="-99.8" font-family="Times,serif" font-size="14.00" fill="#000000">ApiService</text>
</g>
<!-- ApiService&#45;&gt;AppModule -->
<g id="edge20" class="edge">
<title>ApiService&#45;&gt;AppModule</title>
<path fill="none" stroke="#000000" d="M78,-122.0098C78,-146.4207 78,-187 78,-187 78,-187 1696.3022,-187 1696.3022,-187"/>
<polygon fill="#000000" stroke="#000000" points="1696.3023,-190.5001 1706.3022,-187 1696.3022,-183.5001 1696.3023,-190.5001"/>
</g>
<!-- RouterModule.forRoot(args) -->
<g id="node22" class="node">
<title>RouterModule.forRoot(args)</title>
<polygon fill="#8dd3c7" stroke="#000000" points="3490.8419,-190 3487.8419,-194 3466.8419,-194 3463.8419,-190 3313.1581,-190 3313.1581,-154 3490.8419,-154 3490.8419,-190"/>
<text text-anchor="middle" x="3402" y="-167.8" font-family="Times,serif" font-size="14.00" fill="#000000">RouterModule.forRoot(args)</text>
</g>
<!-- RouterModule.forRoot(args)&#45;&gt;AppRoutingModule -->
<g id="edge21" class="edge">
<title>RouterModule.forRoot(args)&#45;&gt;AppRoutingModule</title>
<path fill="none" stroke="#000000" d="M3402,-153.7079C3402,-131.7943 3402,-98 3402,-98 3402,-98 3157.5544,-98 3157.5544,-98"/>
<polygon fill="#000000" stroke="#000000" points="3157.5544,-94.5001 3147.5544,-98 3157.5544,-101.5001 3157.5544,-94.5001"/>
</g>
</g>
</svg>
